<svg width="24" height="24" viewBox="3 3 30 30" fill="none" xmlns="http://www.w3.org/2000/svg">
<path d="M23.1563 19C23.1563 21.2954 21.2954 23.1563 19 23.1563C16.7046 23.1563 14.8438 21.2954 14.8438 19C14.8438 16.7046 16.7046 14.8438 19 14.8438C21.2954 14.8438 23.1563 16.7046 23.1563 19Z" stroke="white" stroke-width="1.5" stroke-linecap="round" stroke-linejoin="round"/>
<path d="M30.0834 19.75C30.4976 19.75 30.8334 19.4142 30.8334 19C30.8334 18.5858 30.4976 18.25 30.0834 18.25V19.75ZM27.3125 18.25C26.8983 18.25 26.5625 18.5858 26.5625 19C26.5625 19.4142 26.8983 19.75 27.3125 19.75V18.25ZM10.6875 19.75C11.1017 19.75 11.4375 19.4142 11.4375 19C11.4375 18.5858 11.1017 18.25 10.6875 18.25V19.75ZM7.91669 18.25C7.50247 18.25 7.16669 18.5858 7.16669 19C7.16669 19.4142 7.50247 19.75 7.91669 19.75V18.25ZM19.75 7.91667C19.75 7.50246 19.4142 7.16667 19 7.16667C18.5858 7.16667 18.25 7.50246 18.25 7.91667H19.75ZM18.25 10.6875C18.25 11.1017 18.5858 11.4375 19 11.4375C19.4142 11.4375 19.75 11.1017 19.75 10.6875H18.25ZM19.75 27.3125C19.75 26.8983 19.4142 26.5625 19 26.5625C18.5858 26.5625 18.25 26.8983 18.25 27.3125H19.75ZM18.25 30.0833C18.25 30.4976 18.5858 30.8333 19 30.8333C19.4142 30.8333 19.75 30.4976 19.75 30.0833H18.25ZM27.3679 11.6928C27.6607 11.3999 27.6607 10.9251 27.3679 10.6322C27.075 10.3393 26.6001 10.3393 26.3072 10.6322L27.3679 11.6928ZM24.347 12.5923C24.0541 12.8852 24.0541 13.3601 24.347 13.653C24.6399 13.9459 25.1148 13.9459 25.4077 13.653L24.347 12.5923ZM13.653 25.4077C13.9459 25.1148 13.9459 24.6399 13.653 24.347C13.3601 24.0541 12.8853 24.0541 12.5924 24.347L13.653 25.4077ZM10.6322 26.3072C10.3393 26.6001 10.3393 27.0749 10.6322 27.3678C10.9251 27.6607 11.4 27.6607 11.6929 27.3678L10.6322 26.3072ZM11.6929 10.6322C11.4 10.3393 10.9251 10.3393 10.6322 10.6322C10.3393 10.9251 10.3393 11.3999 10.6322 11.6928L11.6929 10.6322ZM12.5924 13.653C12.8853 13.9459 13.3601 13.9459 13.653 13.653C13.9459 13.3601 13.9459 12.8852 13.653 12.5923L12.5924 13.653ZM25.4093 24.3486C25.1164 24.0557 24.6415 24.0557 24.3486 24.3486C24.0557 24.6415 24.0557 25.1164 24.3486 25.4093L25.4093 24.3486ZM26.3072 27.3678C26.6001 27.6607 27.075 27.6607 27.3679 27.3678C27.6607 27.0749 27.6607 26.6001 27.3679 26.3072L26.3072 27.3678ZM30.0834 18.25H27.3125V19.75H30.0834V18.25ZM10.6875 18.25H7.91669V19.75H10.6875V18.25ZM18.25 7.91667V10.6875H19.75V7.91667H18.25ZM18.25 27.3125V30.0833H19.75V27.3125H18.25ZM26.3072 10.6322L24.347 12.5923L25.4077 13.653L27.3679 11.6928L26.3072 10.6322ZM12.5924 24.347L10.6322 26.3072L11.6929 27.3678L13.653 25.4077L12.5924 24.347ZM10.6322 11.6928L12.5924 13.653L13.653 12.5923L11.6929 10.6322L10.6322 11.6928ZM24.3486 25.4093L26.3072 27.3678L27.3679 26.3072L25.4093 24.3486L24.3486 25.4093Z" fill="white"/>
</svg>