<svg width="20" height="21" viewBox="0 0 20 21" fill="none" xmlns="http://www.w3.org/2000/svg">
<path d="M4 0H17.3333C18.8061 0 20 1.17525 20 2.625V18.375C20 19.8247 18.8061 21 17.3333 21H4C2.52724 21 1.33333 19.8247 1.33333 18.375V17.0625H2.66667V18.375C2.66667 19.0999 3.26362 19.6875 4 19.6875H17.3333C18.0697 19.6875 18.6667 19.0999 18.6667 18.375V2.625C18.6667 1.90013 18.0697 1.3125 17.3333 1.3125H4C3.26362 1.3125 2.66667 1.90013 2.66667 2.625V3.9375H1.33333V2.625C1.33333 1.17525 2.52724 0 4 0Z" fill="#C4C4C4"/>
<path d="M1.33333 6.5625V5.90625C1.33333 5.54381 1.63181 5.25 2 5.25C2.36819 5.25 2.66667 5.54381 2.66667 5.90625V6.5625H3.33333C3.70152 6.5625 4 6.85631 4 7.21875C4 7.58119 3.70152 7.875 3.33333 7.875H0.666667C0.298477 7.875 0 7.58119 0 7.21875C0 6.85631 0.298477 6.5625 0.666667 6.5625H1.33333Z" fill="#C4C4C4"/>
<path d="M1.33333 10.5V9.84375C1.33333 9.48131 1.63181 9.1875 2 9.1875C2.36819 9.1875 2.66667 9.48131 2.66667 9.84375V10.5H3.33333C3.70152 10.5 4 10.7938 4 11.1562C4 11.5187 3.70152 11.8125 3.33333 11.8125H0.666667C0.298477 11.8125 0 11.5187 0 11.1562C0 10.7938 0.298477 10.5 0.666667 10.5H1.33333Z" fill="#C4C4C4"/>
<path d="M1.33333 14.4375V13.7812C1.33333 13.4188 1.63181 13.125 2 13.125C2.36819 13.125 2.66667 13.4188 2.66667 13.7812V14.4375H3.33333C3.70152 14.4375 4 14.7313 4 15.0938C4 15.4562 3.70152 15.75 3.33333 15.75H0.666667C0.298477 15.75 0 15.4562 0 15.0938C0 14.7313 0.298477 14.4375 0.666667 14.4375H1.33333Z" fill="#C4C4C4"/>
</svg>
