<svg width="22" height="20" viewBox="0 0 22 20" fill="none" xmlns="http://www.w3.org/2000/svg">
<path d="M9.80991 18.38C9.20752 18.3793 8.62944 18.1424 8.19991 17.72L3.19991 12.72C2.98797 12.5099 2.81973 12.2599 2.70492 11.9844C2.59012 11.709 2.53101 11.4135 2.53101 11.115C2.53101 10.8166 2.59012 10.5211 2.70492 10.2456C2.81973 9.97014 2.98797 9.72013 3.19991 9.51002L3.42991 9.27002C3.8586 8.84621 4.4371 8.60852 5.03991 8.60852C5.64273 8.60852 6.22123 8.84621 6.64991 9.27002L11.6499 14.27C11.8619 14.4801 12.0301 14.7301 12.1449 15.0056C12.2597 15.2811 12.3188 15.5766 12.3188 15.875C12.3188 16.1735 12.2597 16.469 12.1449 16.7444C12.0301 17.0199 11.8619 17.2699 11.6499 17.48L11.4199 17.72C10.9904 18.1424 10.4123 18.3793 9.80991 18.38ZM5.04991 10.11C4.94978 10.1088 4.8504 10.1276 4.75766 10.1654C4.66491 10.2032 4.58068 10.2592 4.50991 10.33L4.26991 10.57C4.19825 10.6415 4.1414 10.7265 4.10261 10.82C4.06382 10.9135 4.04386 11.0138 4.04386 11.115C4.04386 11.2163 4.06382 11.3165 4.10261 11.41C4.1414 11.5036 4.19825 11.5885 4.26991 11.66L9.26991 16.66C9.41606 16.8054 9.6138 16.8869 9.81991 16.8869C10.026 16.8869 10.2238 16.8054 10.3699 16.66L10.5999 16.42C10.6733 16.3486 10.7316 16.263 10.7711 16.1685C10.8106 16.074 10.8306 15.9725 10.8299 15.87C10.8304 15.7691 10.8103 15.6691 10.7707 15.5762C10.7312 15.4834 10.6731 15.3996 10.5999 15.33L5.59991 10.33C5.5273 10.2589 5.44132 10.2028 5.34692 10.165C5.25252 10.1273 5.15157 10.1086 5.04991 10.11Z" fill="#C4C4C4"/>
<path d="M16.9199 11.37C16.3163 11.3656 15.7384 11.1251 15.3099 10.7L10.3099 5.69997C9.88365 5.27257 9.64429 4.69359 9.64429 4.08997C9.64429 3.48636 9.88365 2.90737 10.3099 2.47997L10.5499 2.23997C10.9769 1.81678 11.5537 1.57935 12.1549 1.57935C12.7561 1.57935 13.3329 1.81678 13.7599 2.23997L18.7599 7.23997C19.1831 7.66695 19.4205 8.2438 19.4205 8.84497C19.4205 9.44614 19.1831 10.023 18.7599 10.45L18.5199 10.69C18.0954 11.1163 17.5214 11.3603 16.9199 11.37ZM12.1599 3.08997C12.0589 3.08885 11.9587 3.10872 11.8657 3.14831C11.7728 3.1879 11.6891 3.24635 11.6199 3.31997L11.3799 3.54997C11.2345 3.69612 11.153 3.89386 11.153 4.09997C11.153 4.30608 11.2345 4.50382 11.3799 4.64997L16.3799 9.64997C16.526 9.79531 16.7238 9.87689 16.9299 9.87689C17.136 9.87689 17.3337 9.79531 17.4799 9.64997L17.7099 9.40997C17.783 9.34041 17.8412 9.25661 17.8807 9.16375C17.9203 9.07088 17.9404 8.97091 17.9399 8.86997C17.9406 8.76753 17.9206 8.66599 17.8811 8.57148C17.8415 8.47696 17.7833 8.39141 17.7099 8.31997L12.7099 3.31997C12.6381 3.247 12.5525 3.18908 12.458 3.14958C12.3636 3.11009 12.2622 3.08983 12.1599 3.08997Z" fill="#C4C4C4"/>
<path d="M18.55 8.21C17.9476 8.20933 17.3695 7.97235 16.94 7.55L13.53 4.13C13.318 3.91989 13.1498 3.66988 13.035 3.39441C12.9202 3.11893 12.8611 2.82344 12.8611 2.525C12.8611 2.22656 12.9202 1.93107 13.035 1.6556C13.1498 1.38012 13.318 1.13011 13.53 0.920001L13.76 0.680001C14.1874 0.253764 14.7664 0.0144043 15.37 0.0144043C15.9736 0.0144043 16.5526 0.253764 16.98 0.680001L20.4 4.09C20.8238 4.51868 21.0615 5.09719 21.0615 5.7C21.0615 6.30282 20.8238 6.88132 20.4 7.31L20.16 7.55C19.7305 7.97235 19.1524 8.20933 18.55 8.21ZM15.37 1.51C15.1639 1.51294 14.9668 1.59534 14.82 1.74L14.59 2C14.5183 2.07152 14.4615 2.15647 14.4227 2.24999C14.3839 2.34351 14.3639 2.44376 14.3639 2.545C14.3639 2.64624 14.3839 2.74649 14.4227 2.84001C14.4615 2.93353 14.5183 3.01848 14.59 3.09L18 6.49C18.1461 6.63534 18.3439 6.71692 18.55 6.71692C18.7561 6.71692 18.9538 6.63534 19.1 6.49L19.33 6.25C19.4032 6.17831 19.4613 6.09273 19.501 5.99829C19.5407 5.90385 19.5611 5.80244 19.5611 5.7C19.5611 5.59756 19.5407 5.49615 19.501 5.40171C19.4613 5.30727 19.4032 5.22169 19.33 5.15L15.92 1.74C15.7743 1.59353 15.5765 1.51082 15.37 1.51Z" fill="#C4C4C4"/>
<path d="M6.62994 20C6.32642 20.0024 6.02555 19.9434 5.74543 19.8266C5.4653 19.7097 5.21172 19.5374 4.99994 19.32L1.60994 15.91C1.39768 15.699 1.22924 15.4481 1.1143 15.1718C0.999359 14.8955 0.940186 14.5992 0.940186 14.3C0.940186 14.0007 0.999359 13.7044 1.1143 13.4281C1.22924 13.1518 1.39768 12.9009 1.60994 12.69L1.83994 12.45C2.26862 12.0261 2.84712 11.7885 3.44994 11.7885C4.05275 11.7885 4.63125 12.0261 5.05994 12.45L8.46994 15.87C8.68188 16.0801 8.85012 16.3301 8.96492 16.6056C9.07973 16.881 9.13884 17.1765 9.13884 17.475C9.13884 17.7734 9.07973 18.0689 8.96492 18.3444C8.85012 18.6198 8.68188 18.8698 8.46994 19.08L8.23994 19.32C8.03016 19.5345 7.77975 19.7051 7.50333 19.8219C7.22691 19.9386 6.93 19.9992 6.62994 20ZM3.44994 13.3C3.34827 13.2985 3.24733 13.3172 3.15293 13.3549C3.05853 13.3927 2.97255 13.4488 2.89994 13.52L2.66994 13.76C2.59676 13.8316 2.53863 13.9172 2.49895 14.0117C2.45926 14.1061 2.43882 14.2075 2.43882 14.31C2.43882 14.4124 2.45926 14.5138 2.49895 14.6082C2.53863 14.7027 2.59676 14.7883 2.66994 14.86L6.07994 18.27C6.15146 18.3416 6.23641 18.3985 6.32992 18.4373C6.42344 18.476 6.52369 18.496 6.62494 18.496C6.72618 18.496 6.82643 18.476 6.91995 18.4373C7.01346 18.3985 7.09842 18.3416 7.16994 18.27L7.40994 18C7.4816 17.9284 7.53845 17.8435 7.57724 17.75C7.61603 17.6564 7.63599 17.5562 7.63599 17.455C7.63599 17.3537 7.61603 17.2535 7.57724 17.1599C7.53845 17.0664 7.4816 16.9815 7.40994 16.91L3.99994 13.51C3.92732 13.4388 3.84134 13.3827 3.74694 13.3449C3.65254 13.3072 3.5516 13.2885 3.44994 13.29V13.3Z" fill="#C4C4C4"/>
<path d="M9.77994 14.2C9.68115 14.2022 9.58298 14.1838 9.49172 14.1459C9.40046 14.108 9.31811 14.0515 9.24994 13.98L6.99994 11.77C6.92918 11.701 6.87294 11.6186 6.83455 11.5276C6.79615 11.4366 6.77637 11.3388 6.77637 11.24C6.77637 11.1412 6.79615 11.0434 6.83455 10.9524C6.87294 10.8613 6.92918 10.7789 6.99994 10.71L11.7099 5.99997C11.7781 5.92843 11.8605 5.87192 11.9517 5.83403C12.043 5.79615 12.1411 5.77774 12.2399 5.77997C12.3387 5.77774 12.4369 5.79615 12.5282 5.83403C12.6194 5.87192 12.7018 5.92843 12.7699 5.99997L14.9999 8.24997C15.0707 8.31891 15.1269 8.40133 15.1653 8.49235C15.2037 8.58338 15.2235 8.68117 15.2235 8.77997C15.2235 8.87876 15.2037 8.97655 15.1653 9.06758C15.1269 9.1586 15.0707 9.24102 14.9999 9.30997L10.3099 14C10.2401 14.0679 10.1569 14.1207 10.0657 14.1551C9.97457 14.1895 9.87728 14.2048 9.77994 14.2ZM8.62994 11.2L9.77994 12.35L13.3899 8.73997L12.2399 7.62997L8.62994 11.2Z" fill="#C4C4C4"/>
</svg>
