<svg width="24" height="24" viewBox="3 3 30 30" fill="none" xmlns="http://www.w3.org/2000/svg">
<path fill-rule="evenodd" clip-rule="evenodd" d="M20.7187 17C20.7187 19.0538 19.0538 20.7187 17 20.7187C14.9462 20.7187 13.2812 19.0538 13.2812 17C13.2812 14.9462 14.9462 13.2812 17 13.2812C19.0538 13.2812 20.7187 14.9462 20.7187 17Z" stroke="#C4C4C4" stroke-width="1.5" stroke-linecap="round" stroke-linejoin="round"/>
<path d="M26.9166 17.7499C27.3308 17.7499 27.6666 17.4141 27.6666 16.9999C27.6666 16.5857 27.3308 16.2499 26.9166 16.2499V17.7499ZM24.4374 16.2499C24.0232 16.2499 23.6874 16.5857 23.6874 16.9999C23.6874 17.4141 24.0232 17.7499 24.4374 17.7499V16.2499ZM9.56242 17.7499C9.97663 17.7499 10.3124 17.4141 10.3124 16.9999C10.3124 16.5857 9.97663 16.2499 9.56242 16.2499V17.7499ZM7.08325 16.2499C6.66904 16.2499 6.33325 16.5857 6.33325 16.9999C6.33325 17.4141 6.66904 17.7499 7.08325 17.7499V16.2499ZM17.7499 7.08325C17.7499 6.66904 17.4141 6.33325 16.9999 6.33325C16.5857 6.33325 16.2499 6.66904 16.2499 7.08325H17.7499ZM16.2499 9.56242C16.2499 9.97663 16.5857 10.3124 16.9999 10.3124C17.4141 10.3124 17.7499 9.97663 17.7499 9.56242H16.2499ZM17.7499 24.4374C17.7499 24.0232 17.4141 23.6874 16.9999 23.6874C16.5857 23.6874 16.2499 24.0232 16.2499 24.4374H17.7499ZM16.2499 26.9166C16.2499 27.3308 16.5857 27.6666 16.9999 27.6666C17.4141 27.6666 17.7499 27.3308 17.7499 26.9166H16.2499ZM24.5427 10.5177C24.8356 10.2249 24.8356 9.74998 24.5427 9.45709C24.2499 9.1642 23.775 9.1642 23.4821 9.45709L24.5427 10.5177ZM21.7283 11.2109C21.4354 11.5038 21.4354 11.9787 21.7283 12.2716C22.0211 12.5645 22.496 12.5645 22.7889 12.2716L21.7283 11.2109ZM12.2716 22.7889C12.5645 22.496 12.5645 22.0211 12.2716 21.7283C11.9787 21.4354 11.5038 21.4354 11.2109 21.7283L12.2716 22.7889ZM9.45709 23.4821C9.1642 23.775 9.1642 24.2499 9.45709 24.5427C9.74998 24.8356 10.2249 24.8356 10.5177 24.5427L9.45709 23.4821ZM10.5177 9.45709C10.2249 9.1642 9.74998 9.1642 9.45709 9.45709C9.1642 9.74998 9.1642 10.2249 9.45709 10.5177L10.5177 9.45709ZM11.2109 12.2716C11.5038 12.5645 11.9787 12.5645 12.2716 12.2716C12.5645 11.9787 12.5645 11.5038 12.2716 11.2109L11.2109 12.2716ZM22.7903 21.7297C22.4974 21.4368 22.0226 21.4368 21.7297 21.7297C21.4368 22.0226 21.4368 22.4974 21.7297 22.7903L22.7903 21.7297ZM23.4821 24.5427C23.775 24.8356 24.2499 24.8356 24.5427 24.5427C24.8356 24.2499 24.8356 23.775 24.5427 23.4821L23.4821 24.5427ZM26.9166 16.2499H24.4374V17.7499H26.9166V16.2499ZM9.56242 16.2499H7.08325V17.7499H9.56242V16.2499ZM16.2499 7.08325V9.56242H17.7499V7.08325H16.2499ZM16.2499 24.4374V26.9166H17.7499V24.4374H16.2499ZM23.4821 9.45709L21.7283 11.2109L22.7889 12.2716L24.5427 10.5177L23.4821 9.45709ZM11.2109 21.7283L9.45709 23.4821L10.5177 24.5427L12.2716 22.7889L11.2109 21.7283ZM9.45709 10.5177L11.2109 12.2716L12.2716 11.2109L10.5177 9.45709L9.45709 10.5177ZM21.7297 22.7903L23.4821 24.5427L24.5427 23.4821L22.7903 21.7297L21.7297 22.7903Z" fill="#C4C4C4"/>
</svg>