<svg width="19" height="20" viewBox="0 0 19 20" fill="none" xmlns="http://www.w3.org/2000/svg">
<path d="M3.8 0H16.4667C17.8658 0 19 1.11929 19 2.5V17.5C19 18.8807 17.8658 20 16.4667 20H3.8C2.40088 20 1.26667 18.8807 1.26667 17.5V16.25H2.53333V17.5C2.53333 18.1904 3.10044 18.75 3.8 18.75H16.4667C17.1662 18.75 17.7333 18.1904 17.7333 17.5V2.5C17.7333 1.80964 17.1662 1.25 16.4667 1.25H3.8C3.10044 1.25 2.53333 1.80964 2.53333 2.5V3.75H1.26667V2.5C1.26667 1.11929 2.40088 0 3.8 0Z" fill="white"/>
<path d="M1.26667 6.25V5.625C1.26667 5.27982 1.55022 5 1.9 5C2.24978 5 2.53333 5.27982 2.53333 5.625V6.25H3.16667C3.51645 6.25 3.8 6.52982 3.8 6.875C3.8 7.22018 3.51645 7.5 3.16667 7.5H0.633333C0.283553 7.5 0 7.22018 0 6.875C0 6.52982 0.283553 6.25 0.633333 6.25H1.26667Z" fill="white"/>
<path d="M1.26667 10V9.375C1.26667 9.02982 1.55022 8.75 1.9 8.75C2.24978 8.75 2.53333 9.02982 2.53333 9.375V10H3.16667C3.51645 10 3.8 10.2798 3.8 10.625C3.8 10.9702 3.51645 11.25 3.16667 11.25H0.633333C0.283553 11.25 0 10.9702 0 10.625C0 10.2798 0.283553 10 0.633333 10H1.26667Z" fill="white"/>
<path d="M1.26667 13.75V13.125C1.26667 12.7798 1.55022 12.5 1.9 12.5C2.24978 12.5 2.53333 12.7798 2.53333 13.125V13.75H3.16667C3.51645 13.75 3.8 14.0298 3.8 14.375C3.8 14.7202 3.51645 15 3.16667 15H0.633333C0.283553 15 0 14.7202 0 14.375C0 14.0298 0.283553 13.75 0.633333 13.75H1.26667Z" fill="white"/>
</svg>
